<svg width="170" height="48" viewBox="0 0 170 48" fill="none" xmlns="http://www.w3.org/2000/svg">
  <g filter="url(#filter0_d)">
    <rect x="4" width="162" height="40" rx="5" fill="#46954A" />
    <path
      d="M36.9395 23.3525H41.2939V25H34.8887V15.0469H36.9395V23.3525ZM48.4648 20.6865H44.5273V23.3525H49.1484V25H42.4766V15.0469H49.1348V16.708H44.5273V19.0801H48.4648V20.6865ZM54.0361 21.3564H52.4023V25H50.3516V15.0469H54.0498C55.2256 15.0469 56.1325 15.3089 56.7705 15.833C57.4085 16.3571 57.7275 17.0977 57.7275 18.0547C57.7275 18.7337 57.5794 19.3011 57.2832 19.7568C56.9915 20.208 56.5472 20.568 55.9502 20.8369L58.1035 24.9043V25H55.9023L54.0361 21.3564ZM52.4023 19.6953H54.0566C54.5716 19.6953 54.9704 19.5654 55.2529 19.3057C55.5355 19.0413 55.6768 18.679 55.6768 18.2188C55.6768 17.7493 55.5423 17.3802 55.2734 17.1113C55.0091 16.8424 54.6012 16.708 54.0498 16.708H52.4023V19.6953ZM70.5928 21.6846C70.5153 22.7555 70.1188 23.5986 69.4033 24.2139C68.6924 24.8291 67.7536 25.1367 66.5869 25.1367C65.3109 25.1367 64.306 24.7083 63.5723 23.8516C62.8431 22.9902 62.4785 21.8099 62.4785 20.3105V19.7021C62.4785 18.7451 62.6471 17.902 62.9844 17.1729C63.3216 16.4437 63.8024 15.8854 64.4268 15.498C65.0557 15.1061 65.7848 14.9102 66.6143 14.9102C67.7627 14.9102 68.6878 15.2178 69.3896 15.833C70.0915 16.4482 70.4971 17.3118 70.6064 18.4238H68.5557C68.5055 17.7812 68.3255 17.3164 68.0156 17.0293C67.7103 16.7376 67.2432 16.5918 66.6143 16.5918C65.9307 16.5918 65.418 16.8379 65.0762 17.3301C64.7389 17.8177 64.5658 18.5765 64.5566 19.6064V20.3584C64.5566 21.4339 64.7184 22.2201 65.042 22.7168C65.3701 23.2135 65.8851 23.4619 66.5869 23.4619C67.2204 23.4619 67.6921 23.3184 68.002 23.0312C68.3164 22.7396 68.4964 22.2907 68.542 21.6846H70.5928ZM80.1152 20.249C80.1152 21.2288 79.9421 22.0879 79.5957 22.8262C79.2493 23.5645 78.7526 24.1341 78.1055 24.5352C77.4629 24.9362 76.7246 25.1367 75.8906 25.1367C75.0658 25.1367 74.3298 24.9385 73.6826 24.542C73.0355 24.1455 72.5342 23.5804 72.1787 22.8467C71.8232 22.1084 71.6432 21.2607 71.6387 20.3037V19.8115C71.6387 18.8317 71.8141 17.9704 72.165 17.2275C72.5205 16.4801 73.0195 15.9082 73.6621 15.5117C74.3092 15.1107 75.0475 14.9102 75.877 14.9102C76.7064 14.9102 77.4424 15.1107 78.085 15.5117C78.7321 15.9082 79.2311 16.4801 79.582 17.2275C79.9375 17.9704 80.1152 18.8294 80.1152 19.8047V20.249ZM78.0371 19.7979C78.0371 18.7542 77.8503 17.9613 77.4766 17.4189C77.1029 16.8766 76.5697 16.6055 75.877 16.6055C75.1888 16.6055 74.6579 16.8743 74.2842 17.4121C73.9105 17.9453 73.7214 18.7292 73.7168 19.7637V20.249C73.7168 21.2653 73.9036 22.0537 74.2773 22.6143C74.651 23.1748 75.1888 23.4551 75.8906 23.4551C76.5788 23.4551 77.1074 23.1862 77.4766 22.6484C77.8457 22.1061 78.0326 21.3177 78.0371 20.2832V19.7979ZM89.6992 25H87.6484L83.6562 18.4512V25H81.6055V15.0469H83.6562L87.6553 21.6094V15.0469H89.6992V25ZM98.7773 16.708H95.7285V25H93.6777V16.708H90.6699V15.0469H98.7773V16.708ZM105.941 20.6865H102.004V23.3525H106.625V25H99.9531V15.0469H106.611V16.708H102.004V19.0801H105.941V20.6865ZM115.361 15.0469V21.6025C115.361 22.6917 115.02 23.5531 114.336 24.1865C113.657 24.82 112.727 25.1367 111.547 25.1367C110.385 25.1367 109.462 24.8291 108.778 24.2139C108.095 23.5986 107.746 22.7533 107.732 21.6777V15.0469H109.783V21.6162C109.783 22.2679 109.938 22.7441 110.248 23.0449C110.562 23.3411 110.995 23.4893 111.547 23.4893C112.7 23.4893 113.285 22.8831 113.304 21.6709V15.0469H115.361ZM111.916 12.3809H114.069L112.176 14.5H110.569L111.916 12.3809ZM117.043 25V15.0469H120.105C120.98 15.0469 121.762 15.2451 122.45 15.6416C123.143 16.0335 123.683 16.5941 124.07 17.3232C124.458 18.0479 124.651 18.8727 124.651 19.7979V20.2559C124.651 21.181 124.46 22.0036 124.077 22.7236C123.699 23.4437 123.163 24.002 122.471 24.3984C121.778 24.7949 120.996 24.9954 120.126 25H117.043ZM119.094 16.708V23.3525H120.085C120.887 23.3525 121.5 23.0905 121.924 22.5664C122.348 22.0423 122.564 21.2926 122.573 20.3174V19.791C122.573 18.7793 122.364 18.0137 121.944 17.4941C121.525 16.9701 120.912 16.708 120.105 16.708H119.094ZM134.324 20.249C134.324 21.2288 134.151 22.0879 133.805 22.8262C133.458 23.5645 132.962 24.1341 132.314 24.5352C131.672 24.9362 130.934 25.1367 130.1 25.1367C129.275 25.1367 128.539 24.9385 127.892 24.542C127.244 24.1455 126.743 23.5804 126.388 22.8467C126.032 22.1084 125.852 21.2607 125.848 20.3037V19.8115C125.848 18.8317 126.023 17.9704 126.374 17.2275C126.729 16.4801 127.229 15.9082 127.871 15.5117C128.518 15.1107 129.257 14.9102 130.086 14.9102C130.915 14.9102 131.651 15.1107 132.294 15.5117C132.941 15.9082 133.44 16.4801 133.791 17.2275C134.146 17.9704 134.324 18.8294 134.324 19.8047V20.249ZM132.246 19.7979C132.246 18.7542 132.059 17.9613 131.686 17.4189C131.312 16.8766 130.779 16.6055 130.086 16.6055C129.398 16.6055 128.867 16.8743 128.493 17.4121C128.119 17.9453 127.93 18.7292 127.926 19.7637V20.249C127.926 21.2653 128.113 22.0537 128.486 22.6143C128.86 23.1748 129.398 23.4551 130.1 23.4551C130.788 23.4551 131.316 23.1862 131.686 22.6484C132.055 22.1061 132.242 21.3177 132.246 20.2832V19.7979Z"
      fill="white" />
  </g>
  <defs>
    <filter id="filter0_d" x="0" y="0" width="170" height="48" filterUnits="userSpaceOnUse"
      color-interpolation-filters="sRGB">
      <feFlood flood-opacity="0" result="BackgroundImageFix" />
      <feColorMatrix in="SourceAlpha" type="matrix" values="0 0 0 0 0 0 0 0 0 0 0 0 0 0 0 0 0 0 127 0"
        result="hardAlpha" />
      <feOffset dy="4" />
      <feGaussianBlur stdDeviation="2" />
      <feComposite in2="hardAlpha" operator="out" />
      <feColorMatrix type="matrix" values="0 0 0 0 0 0 0 0 0 0 0 0 0 0 0 0 0 0 0.25 0" />
      <feBlend mode="normal" in2="BackgroundImageFix" result="effect1_dropShadow" />
      <feBlend mode="normal" in="SourceGraphic" in2="effect1_dropShadow" result="shape" />
    </filter>
  </defs>
</svg>